<?xml version="1.0" encoding="UTF-8" standalone="no"?>
<!-- Created with Inkscape (http://www.inkscape.org/) -->

<svg
   xmlns:dc="http://purl.org/dc/elements/1.1/"
   xmlns:cc="http://creativecommons.org/ns#"
   xmlns:rdf="http://www.w3.org/1999/02/22-rdf-syntax-ns#"
   xmlns:svg="http://www.w3.org/2000/svg"
   xmlns="http://www.w3.org/2000/svg"
   xmlns:sodipodi="http://sodipodi.sourceforge.net/DTD/sodipodi-0.dtd"
   xmlns:inkscape="http://www.inkscape.org/namespaces/inkscape"
   width="500mm"
   height="300mm"
   viewBox="0 0 500 300"
   version="1.1"
   id="svg8"
   inkscape:version="0.92.4 (5da689c313, 2019-01-14)"
   sodipodi:docname="anoo-svg.svg">
  <defs
     id="defs2">
    <clipPath
       id="clipPath835"
       clipPathUnits="userSpaceOnUse">
      <path
         inkscape:connector-curvature="0"
         id="path833"
         d="M 0,291.472 H 425.197 V 0 H 0 Z" />
    </clipPath>
  </defs>
  <sodipodi:namedview
     id="base"
     pagecolor="#ffffff"
     bordercolor="#666666"
     borderopacity="1.0"
     inkscape:pageopacity="0.0"
     inkscape:pageshadow="2"
     inkscape:zoom="0.7"
     inkscape:cx="120.10702"
     inkscape:cy="689.37842"
     inkscape:document-units="mm"
     inkscape:current-layer="layer1"
     showgrid="false"
     inkscape:window-width="3840"
     inkscape:window-height="2035"
     inkscape:window-x="-13"
     inkscape:window-y="-13"
     inkscape:window-maximized="1"
     inkscape:showpageshadow="false" />
  <metadata
     id="metadata5">
    <rdf:RDF>
      <cc:Work
         rdf:about="">
        <dc:format>image/svg+xml</dc:format>
        <dc:type
           rdf:resource="http://purl.org/dc/dcmitype/StillImage" />
        <dc:title />
      </cc:Work>
    </rdf:RDF>
  </metadata>
  <g
     inkscape:label="Ebene 1"
     inkscape:groupmode="layer"
     id="layer1"
     transform="translate(0,3)">
    <g
       transform="matrix(1.4983333,0,0,-1.4983333,-68.716994,381.8552)"
       inkscape:label="anoo_Logo"
       id="g823">
      <g
         aria-label="Advokatur &amp; Notariat"
         transform="matrix(1,0,0,-1,79.6709,106.0273)"
         style="font-variant:normal;font-weight:300;font-stretch:normal;font-size:28px;font-family:'Quicksand Light';-inkscape-font-specification:Quicksand-Light;writing-mode:lr-tb;fill:#4d4d4d;fill-opacity:1;fill-rule:nonzero;stroke:none"
         id="text827">
        <path
           d="m 17.164,-0.756 q 0.028,0.084 0.028,0.224 0,0.252 -0.168,0.392 Q 16.856,0 16.604,0 16.408,0 16.24,-0.084 16.1,-0.196 16.044,-0.364 l -2.352,-5.768 0.028,0.056 H 4.34 L 2.072,-0.364 Q 1.932,0 1.568,0 1.316,0 1.148,-0.14 1.008,-0.28 0.98,-0.476 0.952,-0.588 1.008,-0.756 L 8.54,-19.292 q 0.084,-0.224 0.196,-0.28 0.14,-0.084 0.336,-0.084 0.42,0 0.56,0.364 z M 4.788,-7.196 h 8.484 L 8.988,-17.752 Z"
           style=""
           id="path829" />
        <path
           d="m 31.808,-20.72 q 0.252,0 0.392,0.168 0.168,0.168 0.168,0.392 v 19.6 q 0,0.224 -0.168,0.392 Q 32.032,0 31.808,0 q -0.252,0 -0.42,-0.168 -0.14,-0.168 -0.14,-0.392 v -2.66 q -0.672,1.484 -2.128,2.492 -1.456,1.008 -3.248,1.008 -1.82,0 -3.304,-0.952 -1.484,-0.98 -2.352,-2.66 -0.84,-1.68 -0.84,-3.752 0,-2.072 0.84,-3.752 0.868,-1.68 2.352,-2.632 1.484,-0.952 3.304,-0.952 1.736,0 3.22,0.98 1.484,0.98 2.156,2.548 v -9.268 q 0,-0.224 0.14,-0.392 0.168,-0.168 0.42,-0.168 z m -5.88,19.936 q 1.568,0 2.8,-0.812 1.232,-0.812 1.932,-2.24 0.7,-1.456 0.7,-3.248 0,-1.792 -0.7,-3.22 -0.7,-1.428 -1.96,-2.24 -1.232,-0.812 -2.772,-0.812 -1.512,0 -2.772,0.812 -1.232,0.812 -1.96,2.268 -0.7,1.428 -0.7,3.192 0,1.792 0.7,3.22 0.728,1.428 1.96,2.268 1.232,0.812 2.772,0.812 z"
           style=""
           id="path831" />
        <path
           d="m 47.459998,-14.476 q 0.168,0 0.336,0.14 0.196,0.112 0.196,0.308 0,0.168 -0.084,0.336 l -5.572,13.328 q -0.056,0.168 -0.224,0.28 -0.14,0.084 -0.308,0.084 -0.168,0 -0.336,-0.084 -0.14,-0.112 -0.196,-0.28 l -5.6,-13.3 q -0.056,-0.168 -0.056,-0.252 0,-0.224 0.14,-0.392 0.168,-0.168 0.448,-0.168 0.14,0 0.28,0.112 0.168,0.084 0.224,0.252 l 5.068,12.18 5.096,-12.18 q 0.14,-0.364 0.588,-0.364 z"
           style=""
           id="path834" />
        <path
           d="m 63.924001,-7.056 q 0,2.072 -0.896,3.752 -0.896,1.652 -2.492,2.632 -1.568,0.952 -3.5,0.952 -1.932,0 -3.528,-0.952 -1.568,-0.98 -2.492,-2.66 -0.896,-1.68 -0.896,-3.724 0,-2.072 0.896,-3.752 0.924,-1.68 2.492,-2.632 1.568,-0.98 3.528,-0.98 1.932,0 3.5,0.98 1.596,0.952 2.492,2.632 0.896,1.68 0.896,3.752 z m -1.12,0 q 0,-1.792 -0.756,-3.22 -0.728,-1.428 -2.044,-2.24 -1.316,-0.84 -2.968,-0.84 -1.624,0 -2.968,0.84 -1.316,0.812 -2.072,2.24 -0.756,1.428 -0.756,3.22 0,1.764 0.756,3.192 0.756,1.428 2.072,2.268 1.344,0.812 2.968,0.812 1.652,0 2.968,-0.812 1.316,-0.812 2.044,-2.24 0.756,-1.456 0.756,-3.22 z"
           style=""
           id="path836" />
        <path
           d="m 78.427998,-0.98 q 0.168,0.168 0.168,0.42 0,0.252 -0.224,0.42 -0.196,0.14 -0.336,0.14 -0.224,0 -0.42,-0.196 l -6.552,-6.972 -2.352,1.96 v 4.648 q 0,0.224 -0.168,0.392 -0.14,0.168 -0.392,0.168 -0.252,0 -0.42,-0.168 -0.14,-0.168 -0.14,-0.392 v -19.6 q 0,-0.224 0.14,-0.392 0.168,-0.168 0.42,-0.168 0.252,0 0.392,0.168 0.168,0.168 0.168,0.392 v 13.552 l 8.792,-7.364 q 0.168,-0.168 0.364,-0.168 0.224,0 0.392,0.168 0.168,0.168 0.168,0.42 0,0.252 -0.196,0.42 l -6.3,5.236 z"
           style=""
           id="path838" />
        <path
           d="m 93.321197,-13.972 q 0.252,0 0.392,0.168 0.168,0.168 0.168,0.392 V -0.56 q 0,0.224 -0.168,0.392 -0.168,0.168 -0.392,0.168 -0.252,0 -0.42,-0.168 -0.14,-0.168 -0.14,-0.392 v -2.52 q -0.7,1.428 -2.156,2.408 -1.456,0.952 -3.22,0.952 -1.848,0 -3.332,-0.952 -1.484,-0.98 -2.324,-2.66 -0.84,-1.708 -0.84,-3.808 0,-2.072 0.84,-3.724 0.868,-1.68 2.352,-2.604 1.484,-0.952 3.304,-0.952 1.82,0 3.276,0.952 1.456,0.952 2.1,2.548 v -2.492 q 0,-0.224 0.14,-0.392 0.168,-0.168 0.42,-0.168 z m -5.88,13.188 q 1.54,0 2.772,-0.812 1.26,-0.84 1.96,-2.296 0.7,-1.456 0.7,-3.248 0,-1.708 -0.7,-3.136 -0.7,-1.428 -1.96,-2.24 -1.232,-0.84 -2.772,-0.84 -1.54,0 -2.8,0.812 -1.232,0.784 -1.932,2.212 -0.7,1.4 -0.7,3.192 0,1.792 0.7,3.248 0.7,1.456 1.932,2.296 1.232,0.812 2.8,0.812 z"
           style=""
           id="path840" />
        <path
           d="m 103.5972,-14.084 q 0.196,0 0.364,0.168 0.168,0.168 0.168,0.364 0,0.224 -0.168,0.392 -0.14,0.14 -0.364,0.14 h -3.08 v 9.968 q 0,1.232 0.42,1.652 0.448,0.392 1.12,0.392 0.112,0 0.308,-0.056 0.224,-0.056 0.364,-0.056 0.196,0 0.336,0.168 0.14,0.14 0.14,0.336 0,0.252 -0.336,0.448 -0.336,0.168 -0.784,0.168 -0.7,0 -1.176,-0.084 -0.476,-0.112 -1.007999,-0.756 -0.504,-0.672 -0.504,-2.156 V -13.02 h -2.296 q -0.196,0 -0.364,-0.168 -0.168,-0.168 -0.168,-0.364 0,-0.224 0.14,-0.364 0.168,-0.168 0.392,-0.168 h 2.296 v -3.556 q 0,-0.224 0.168,-0.392 0.168,-0.168 0.392,-0.168 0.251999,0 0.391999,0.168 0.168,0.168 0.168,0.392 v 3.556 z"
           style=""
           id="path842" />
        <path
           d="m 117.6532,-13.972 q 0.252,0 0.392,0.168 0.168,0.168 0.168,0.392 v 8.148 q 0,2.66 -1.512,4.06 -1.484,1.372 -4.06,1.372 -2.576,0 -4.06,-1.372 -1.484,-1.4 -1.484,-4.06 v -8.148 q 0,-0.224 0.168,-0.392 0.168,-0.168 0.392,-0.168 0.252,0 0.392,0.168 0.168,0.168 0.168,0.392 v 8.148 q 0,2.1 1.176,3.248 1.176,1.12 3.248,1.12 2.1,0 3.276,-1.12 1.176,-1.148 1.176,-3.248 v -8.148 q 0,-0.224 0.14,-0.392 0.168,-0.168 0.42,-0.168 z"
           style=""
           id="path844" />
        <path
           d="m 129.0492,-14.42 q 1.288,0 1.288,0.644 0,0.252 -0.14,0.42 -0.14,0.168 -0.364,0.168 -0.084,0 -0.42,-0.112 -0.308,-0.14 -0.672,-0.14 -1.148,0 -2.296,0.924 -1.148,0.896 -1.876,2.296 -0.728,1.372 -0.728,2.66 v 7 q 0,0.224 -0.168,0.392 -0.168,0.168 -0.392,0.168 -0.252,0 -0.42,-0.168 -0.14,-0.168 -0.14,-0.392 v -12.852 q 0,-0.224 0.168,-0.392 0.168,-0.168 0.392,-0.168 0.252,0 0.392,0.168 0.168,0.168 0.168,0.392 v 2.968 q 0.644,-1.708 1.988,-2.828 1.372,-1.12 3.22,-1.148 z"
           style=""
           id="path846" />
        <path
           d="m 155.7612,-1.148 q 0.252,0.168 0.252,0.448 0,0.224 -0.168,0.42 -0.14,0.168 -0.392,0.168 -0.112,0 -0.336,-0.112 -0.084,-0.056 -0.952,-0.7 l -1.988,-1.512 q -1.176,1.288 -2.856,2.016 -1.68,0.7 -3.808,0.7 -1.932,0 -3.472,-0.924 -1.512,-0.924 -2.38,-2.408 -0.84,-1.484 -0.84,-3.136 0,-1.792 1.064,-3.36 1.092,-1.568 3.164,-2.324 -1.204,-2.016 -1.204,-3.612 0,-1.96 1.344,-3.164 1.344,-1.232 3.64,-1.232 1.904,0 3.164,0.756 1.288,0.728 1.876,1.876 0.112,0.224 0.112,0.336 0,0.168 -0.168,0.336 -0.168,0.168 -0.392,0.168 -0.308,0 -0.476,-0.252 -0.644,-0.98 -1.596,-1.54 -0.952,-0.56 -2.52,-0.56 -1.848,0 -2.828,0.896 -0.98,0.896 -0.98,2.436 0,1.232 0.868,2.8 0.868,1.568 2.352,3.22 2.408,2.772 5.74,5.46 1.064,-1.54 1.54,-3.864 0.056,-0.224 0.196,-0.336 0.168,-0.14 0.392,-0.14 0.252,0 0.392,0.196 0.168,0.168 0.14,0.448 -0.42,2.576 -1.792,4.368 1.82,1.4 2.912,2.128 z m -10.248,0.308 q 3.724,0 5.796,-2.268 -3.248,-2.548 -5.992,-5.74 -0.98,-1.092 -1.68,-2.128 -1.82,0.56 -2.744,1.82 -0.896,1.26 -0.896,2.828 0,1.428 0.644,2.688 0.672,1.26 1.932,2.044 1.26,0.756 2.94,0.756 z"
           style=""
           id="path848" />
        <path
           d="m 180.96119,-19.6 q 0.252,0 0.392,0.168 0.14,0.14 0.14,0.364 v 18.452 q 0,0.308 -0.168,0.476 -0.168,0.14 -0.42,0.14 -0.28,0 -0.448,-0.224 l -12.6,-17.22 v 16.968 q 0,0.196 -0.168,0.336 -0.14,0.14 -0.364,0.14 -0.252,0 -0.392,-0.14 -0.14,-0.14 -0.14,-0.336 V -19.04 q 0,-0.28 0.14,-0.42 0.168,-0.14 0.364,-0.14 0.252,0 0.42,0.196 l 12.712,17.332 v -16.996 q 0,-0.224 0.14,-0.364 0.168,-0.168 0.392,-0.168 z"
           style=""
           id="path850" />
        <path
           d="m 199.3012,-7.056 q 0,2.072 -0.896,3.752 -0.896,1.652 -2.492,2.632 -1.568,0.952 -3.5,0.952 -1.932,0 -3.528,-0.952 -1.568,-0.98 -2.492,-2.66 -0.896,-1.68 -0.896,-3.724 0,-2.072 0.896,-3.752 0.924,-1.68 2.492,-2.632 1.568,-0.98 3.528,-0.98 1.932,0 3.5,0.98 1.596,0.952 2.492,2.632 0.896,1.68 0.896,3.752 z m -1.12,0 q 0,-1.792 -0.756,-3.22 -0.728,-1.428 -2.044,-2.24 -1.316,-0.84 -2.968,-0.84 -1.624,0 -2.968,0.84 -1.316,0.812 -2.072,2.24 -0.756,1.428 -0.756,3.22 0,1.764 0.756,3.192 0.756,1.428 2.072,2.268 1.344,0.812 2.968,0.812 1.652,0 2.968,-0.812 1.316,-0.812 2.044,-2.24 0.756,-1.456 0.756,-3.22 z"
           style=""
           id="path852" />
        <path
           d="m 208.0372,-14.084 q 0.196,0 0.364,0.168 0.168,0.168 0.168,0.364 0,0.224 -0.168,0.392 -0.14,0.14 -0.364,0.14 h -3.08 v 9.968 q 0,1.232 0.42,1.652 0.448,0.392 1.12,0.392 0.112,0 0.308,-0.056 0.224,-0.056 0.364,-0.056 0.196,0 0.336,0.168 0.14,0.14 0.14,0.336 0,0.252 -0.336,0.448 -0.336,0.168 -0.784,0.168 -0.7,0 -1.176,-0.084 -0.476,-0.112 -1.008,-0.756 -0.504,-0.672 -0.504,-2.156 V -13.02 h -2.296 q -0.196,0 -0.364,-0.168 -0.168,-0.168 -0.168,-0.364 0,-0.224 0.14,-0.364 0.168,-0.168 0.392,-0.168 h 2.296 v -3.556 q 0,-0.224 0.168,-0.392 0.168,-0.168 0.392,-0.168 0.252,0 0.392,0.168 0.168,0.168 0.168,0.392 v 3.556 z"
           style=""
           id="path854" />
        <path
           d="m 222.9892,-13.972 q 0.252,0 0.392,0.168 0.168,0.168 0.168,0.392 V -0.56 q 0,0.224 -0.168,0.392 -0.168,0.168 -0.392,0.168 -0.252,0 -0.42,-0.168 -0.14,-0.168 -0.14,-0.392 v -2.52 q -0.7,1.428 -2.156,2.408 -1.456,0.952 -3.22,0.952 -1.848,0 -3.332,-0.952 -1.484,-0.98 -2.324,-2.66 -0.84,-1.708 -0.84,-3.808 0,-2.072 0.84,-3.724 0.868,-1.68 2.352,-2.604 1.484,-0.952 3.304,-0.952 1.82,0 3.276,0.952 1.456,0.952 2.1,2.548 v -2.492 q 0,-0.224 0.14,-0.392 0.168,-0.168 0.42,-0.168 z m -5.88,13.188 q 1.54,0 2.772,-0.812 1.26,-0.84 1.96,-2.296 0.7,-1.456 0.7,-3.248 0,-1.708 -0.7,-3.136 -0.7,-1.428 -1.96,-2.24 -1.232,-0.84 -2.772,-0.84 -1.54,0 -2.8,0.812 -1.232,0.784 -1.932,2.212 -0.7,1.4 -0.7,3.192 0,1.792 0.7,3.248 0.7,1.456 1.932,2.296 1.232,0.812 2.8,0.812 z"
           style=""
           id="path856" />
        <path
           d="m 234.3852,-14.42 q 1.288,0 1.288,0.644 0,0.252 -0.14,0.42 -0.14,0.168 -0.364,0.168 -0.084,0 -0.42,-0.112 -0.308,-0.14 -0.672,-0.14 -1.148,0 -2.296,0.924 -1.148,0.896 -1.876,2.296 -0.728,1.372 -0.728,2.66 v 7 q 0,0.224 -0.168,0.392 -0.168,0.168 -0.392,0.168 -0.252,0 -0.42,-0.168 -0.14,-0.168 -0.14,-0.392 v -12.852 q 0,-0.224 0.168,-0.392 0.168,-0.168 0.392,-0.168 0.252,0 0.392,0.168 0.168,0.168 0.168,0.392 v 2.968 q 0.644,-1.708 1.988,-2.828 1.372,-1.12 3.22,-1.148 z"
           style=""
           id="path858" />
        <path
           d="m 239.3412,-0.56 q 0,0.224 -0.168,0.392 -0.168,0.168 -0.392,0.168 -0.252,0 -0.42,-0.168 -0.14,-0.168 -0.14,-0.392 v -13.3 q 0,-0.224 0.168,-0.392 0.168,-0.168 0.392,-0.168 0.252,0 0.392,0.168 0.168,0.168 0.168,0.392 z m -0.56,-15.764 q -0.448,0 -0.728,-0.252 -0.252,-0.252 -0.252,-0.644 v -0.224 q 0,-0.392 0.28,-0.644 0.28,-0.252 0.728,-0.252 0.392,0 0.644,0.252 0.28,0.252 0.28,0.644 v 0.224 q 0,0.392 -0.28,0.644 -0.252,0.252 -0.672,0.252 z"
           style=""
           id="path860" />
        <path
           d="m 255.30121,-13.972 q 0.252,0 0.392,0.168 0.168,0.168 0.168,0.392 V -0.56 q 0,0.224 -0.168,0.392 -0.168,0.168 -0.392,0.168 -0.252,0 -0.42,-0.168 -0.14,-0.168 -0.14,-0.392 v -2.52 q -0.7,1.428 -2.156,2.408 -1.456,0.952 -3.22,0.952 -1.848,0 -3.332,-0.952 -1.484,-0.98 -2.324,-2.66 -0.84,-1.708 -0.84,-3.808 0,-2.072 0.84,-3.724 0.868,-1.68 2.352,-2.604 1.484,-0.952 3.304,-0.952 1.82,0 3.276,0.952 1.456,0.952 2.1,2.548 v -2.492 q 0,-0.224 0.14,-0.392 0.168,-0.168 0.42,-0.168 z m -5.88,13.188 q 1.54,0 2.772,-0.812 1.26,-0.84 1.96,-2.296 0.7,-1.456 0.7,-3.248 0,-1.708 -0.7,-3.136 -0.7,-1.428 -1.96,-2.24 -1.232,-0.84 -2.772,-0.84 -1.54,0 -2.8,0.812 -1.232,0.784 -1.932,2.212 -0.7,1.4 -0.7,3.192 0,1.792 0.7,3.248 0.7,1.456 1.932,2.296 1.232,0.812 2.8,0.812 z"
           style=""
           id="path862" />
        <path
           d="m 265.5772,-14.084 q 0.196,0 0.364,0.168 0.168,0.168 0.168,0.364 0,0.224 -0.168,0.392 -0.14,0.14 -0.364,0.14 h -3.08 v 9.968 q 0,1.232 0.42,1.652 0.448,0.392 1.12,0.392 0.112,0 0.308,-0.056 0.224,-0.056 0.364,-0.056 0.196,0 0.336,0.168 0.14,0.14 0.14,0.336 0,0.252 -0.336,0.448 -0.336,0.168 -0.784,0.168 -0.7,0 -1.176,-0.084 -0.476,-0.112 -1.008,-0.756 -0.504,-0.672 -0.504,-2.156 V -13.02 h -2.296 q -0.196,0 -0.364,-0.168 -0.168,-0.168 -0.168,-0.364 0,-0.224 0.14,-0.364 0.168,-0.168 0.392,-0.168 h 2.296 v -3.556 q 0,-0.224 0.168,-0.392 0.168,-0.168 0.392,-0.168 0.252,0 0.392,0.168 0.168,0.168 0.168,0.392 v 3.556 z"
           style=""
           id="path864" />
      </g>
      <g
         id="g829">
        <g
           clip-path="url(#clipPath835)"
           id="g831">
          <g
             transform="translate(136.8337,175.9413)"
             id="g837">
            <path
               inkscape:connector-curvature="0"
               id="path839"
               style="fill:none;stroke:#4d4d4d;stroke-width:12;stroke-linecap:butt;stroke-linejoin:miter;stroke-miterlimit:10;stroke-dasharray:none;stroke-opacity:1"
               d="m 0,0 c 0,-14.249 -11.552,-25.8 -25.801,-25.8 -14.248,0 -25.8,11.551 -25.8,25.8 0,14.249 11.552,25.8 25.8,25.8 C -11.552,25.8 0,14.249 0,0 Z" />
          </g>
          <g
             transform="translate(273.1452,175.8275)"
             id="g841">
            <path
               inkscape:connector-curvature="0"
               id="path843"
               style="fill:none;stroke:#4884a1;stroke-width:12;stroke-linecap:butt;stroke-linejoin:miter;stroke-miterlimit:10;stroke-dasharray:none;stroke-opacity:1"
               d="m 0,0 c 0,-14.249 -11.551,-25.8 -25.8,-25.8 -14.249,0 -25.8,11.551 -25.8,25.8 0,14.249 11.551,25.8 25.8,25.8 C -11.551,25.8 0,14.249 0,0 Z" />
          </g>
          <g
             transform="translate(340.196,175.8275)"
             id="g845">
            <path
               inkscape:connector-curvature="0"
               id="path847"
               style="fill:none;stroke:#4884a1;stroke-width:12;stroke-linecap:butt;stroke-linejoin:miter;stroke-miterlimit:10;stroke-dasharray:none;stroke-opacity:1"
               d="m 0,0 c 0,-14.249 -11.552,-25.8 -25.801,-25.8 -14.249,0 -25.8,11.551 -25.8,25.8 0,14.249 11.551,25.8 25.8,25.8 C -11.552,25.8 0,14.249 0,0 Z" />
          </g>
          <g
             transform="translate(136.8337,175.1654)"
             id="g849">
            <path
               inkscape:connector-curvature="0"
               id="path851"
               style="fill:none;stroke:#4d4d4d;stroke-width:12;stroke-linecap:butt;stroke-linejoin:miter;stroke-miterlimit:10;stroke-dasharray:none;stroke-opacity:1"
               d="M 0,0 V -31.678" />
          </g>
          <g
             transform="translate(155.1061,143.4872)"
             id="g853">
            <path
               inkscape:connector-curvature="0"
               id="path855"
               style="fill:none;stroke:#4d4d4d;stroke-width:12;stroke-linecap:butt;stroke-linejoin:miter;stroke-miterlimit:10;stroke-dasharray:none;stroke-opacity:1"
               d="m 0,0 v 32.454 c 0,14.249 11.551,25.8 25.8,25.8 14.249,0 25.8,-11.551 25.8,-25.8 V 0" />
          </g>
        </g>
      </g>
    </g>
  </g>
</svg>
