<?xml version="1.0" encoding="UTF-8" standalone="no"?>
<!-- Created with Inkscape (http://www.inkscape.org/) -->

<svg
   xmlns:dc="http://purl.org/dc/elements/1.1/"
   xmlns:cc="http://creativecommons.org/ns#"
   xmlns:rdf="http://www.w3.org/1999/02/22-rdf-syntax-ns#"
   xmlns:svg="http://www.w3.org/2000/svg"
   xmlns="http://www.w3.org/2000/svg"
   xmlns:sodipodi="http://sodipodi.sourceforge.net/DTD/sodipodi-0.dtd"
   xmlns:inkscape="http://www.inkscape.org/namespaces/inkscape"
   width="500mm"
   height="300mm"
   viewBox="0 0 500 300"
   version="1.1"
   id="svg8"
   inkscape:version="0.92.4 (5da689c313, 2019-01-14)"
   sodipodi:docname="anoo-svg.svg">
  <defs
     id="defs2">
    <clipPath
       id="clipPath835"
       clipPathUnits="userSpaceOnUse">
      <path
         inkscape:connector-curvature="0"
         id="path833"
         d="M 0,291.472 H 425.197 V 0 H 0 Z" />
    </clipPath>
  </defs>
  <sodipodi:namedview
     id="base"
     pagecolor="#ffffff"
     bordercolor="#666666"
     borderopacity="1.0"
     inkscape:pageopacity="0.0"
     inkscape:pageshadow="2"
     inkscape:zoom="0.175"
     inkscape:cx="-2797.4445"
     inkscape:cy="445.01855"
     inkscape:document-units="mm"
     inkscape:current-layer="layer1"
     showgrid="false"
     inkscape:window-width="3440"
     inkscape:window-height="1377"
     inkscape:window-x="-8"
     inkscape:window-y="-8"
     inkscape:window-maximized="1"
     inkscape:showpageshadow="false" />
  <metadata
     id="metadata5">
    <rdf:RDF>
      <cc:Work
         rdf:about="">
        <dc:format>image/svg+xml</dc:format>
        <dc:type
           rdf:resource="http://purl.org/dc/dcmitype/StillImage" />
        <dc:title></dc:title>
      </cc:Work>
    </rdf:RDF>
  </metadata>
  <g
     inkscape:label="Ebene 1"
     inkscape:groupmode="layer"
     id="layer1"
     transform="translate(0,3)">
    <g
       transform="matrix(1.4983333,0,0,-1.4983333,-68.716994,381.8552)"
       inkscape:label="anoo_Logo"
       id="g823">
      <text
         id="text827"
         style="font-variant:normal;font-weight:300;font-stretch:normal;font-size:28px;font-family:'Quicksand Light';-inkscape-font-specification:Quicksand-Light;writing-mode:lr-tb;fill:#4d4d4d;fill-opacity:1;fill-rule:nonzero;stroke:none"
         transform="matrix(1,0,0,-1,79.6709,106.0273)">
        <tspan
           id="tspan825"
           sodipodi:role="line"
           y="0"
           x="0 18.032 34.551998 48.776001 65.127998 79.545197 96.065201 104.7732 120.3972 130.5612 137.9812 156.5732 163.99319 184.1532 200.5052 209.2132 225.7332 235.8972 241.52521 258.0452">Advokatur &amp; Notariat</tspan>
      </text>
      <g
         id="g829">
        <g
           clip-path="url(#clipPath835)"
           id="g831">
          <g
             transform="translate(136.8337,175.9413)"
             id="g837">
            <path
               inkscape:connector-curvature="0"
               id="path839"
               style="fill:none;stroke:#4d4d4d;stroke-width:12;stroke-linecap:butt;stroke-linejoin:miter;stroke-miterlimit:10;stroke-dasharray:none;stroke-opacity:1"
               d="m 0,0 c 0,-14.249 -11.552,-25.8 -25.801,-25.8 -14.248,0 -25.8,11.551 -25.8,25.8 0,14.249 11.552,25.8 25.8,25.8 C -11.552,25.8 0,14.249 0,0 Z" />
          </g>
          <g
             transform="translate(273.1452,175.8275)"
             id="g841">
            <path
               inkscape:connector-curvature="0"
               id="path843"
               style="fill:none;stroke:#4884a1;stroke-width:12;stroke-linecap:butt;stroke-linejoin:miter;stroke-miterlimit:10;stroke-dasharray:none;stroke-opacity:1"
               d="m 0,0 c 0,-14.249 -11.551,-25.8 -25.8,-25.8 -14.249,0 -25.8,11.551 -25.8,25.8 0,14.249 11.551,25.8 25.8,25.8 C -11.551,25.8 0,14.249 0,0 Z" />
          </g>
          <g
             transform="translate(340.196,175.8275)"
             id="g845">
            <path
               inkscape:connector-curvature="0"
               id="path847"
               style="fill:none;stroke:#4884a1;stroke-width:12;stroke-linecap:butt;stroke-linejoin:miter;stroke-miterlimit:10;stroke-dasharray:none;stroke-opacity:1"
               d="m 0,0 c 0,-14.249 -11.552,-25.8 -25.801,-25.8 -14.249,0 -25.8,11.551 -25.8,25.8 0,14.249 11.551,25.8 25.8,25.8 C -11.552,25.8 0,14.249 0,0 Z" />
          </g>
          <g
             transform="translate(136.8337,175.1654)"
             id="g849">
            <path
               inkscape:connector-curvature="0"
               id="path851"
               style="fill:none;stroke:#4d4d4d;stroke-width:12;stroke-linecap:butt;stroke-linejoin:miter;stroke-miterlimit:10;stroke-dasharray:none;stroke-opacity:1"
               d="M 0,0 V -31.678" />
          </g>
          <g
             transform="translate(155.1061,143.4872)"
             id="g853">
            <path
               inkscape:connector-curvature="0"
               id="path855"
               style="fill:none;stroke:#4d4d4d;stroke-width:12;stroke-linecap:butt;stroke-linejoin:miter;stroke-miterlimit:10;stroke-dasharray:none;stroke-opacity:1"
               d="m 0,0 v 32.454 c 0,14.249 11.551,25.8 25.8,25.8 14.249,0 25.8,-11.551 25.8,-25.8 V 0" />
          </g>
        </g>
      </g>
    </g>
  </g>
</svg>
